<svg width="300" height="84" viewBox="0 0 300 84" fill="none" xmlns="http://www.w3.org/2000/svg">
<path d="M0 0H300V59C300 72.8071 288.807 84 275 84H25C11.1929 84 0 72.8071 0 59V0Z" fill="#1C1F24"/>
<path d="M199.964 29.024C199.964 27.0613 200.732 25.504 202.268 24.352C203.804 23.1573 205.894 22.56 208.54 22.56L221.98 56.352L220.508 60.384L221.148 60.64L235.548 22.624C238.15 22.624 240.22 23.2213 241.756 24.416C243.334 25.568 244.124 27.1253 244.124 29.088V68.576C238.534 68.576 235.74 66.4853 235.74 62.304V41.824L237.916 35.936L237.212 35.68L225.5 66.272C225.201 66.9547 224.732 67.5093 224.092 67.936C223.494 68.3627 222.812 68.576 222.044 68.576C221.276 68.576 220.572 68.3627 219.932 67.936C219.334 67.5093 218.886 66.9333 218.588 66.208L206.876 35.616L206.172 35.872L208.284 41.76V62.304C208.284 66.4853 205.51 68.576 199.964 68.576V29.024ZM269.315 68.576C265.816 68.576 262.616 67.8933 259.715 66.528C256.814 65.12 254.51 63.2213 252.803 60.832C251.139 58.4427 250.307 55.84 250.307 53.024V38.112C250.307 35.296 251.139 32.7147 252.803 30.368C254.51 27.9787 256.814 26.1013 259.715 24.736C262.616 23.328 265.816 22.624 269.315 22.624C272.814 22.624 276.014 23.328 278.915 24.736C281.859 26.1013 284.163 27.9787 285.827 30.368C287.534 32.7147 288.387 35.296 288.387 38.112V53.024C288.387 55.84 287.534 58.4427 285.827 60.832C284.163 63.2213 281.859 65.12 278.915 66.528C276.014 67.8933 272.814 68.576 269.315 68.576ZM269.315 61.088C272.515 61.088 275.075 60.3413 276.995 58.848C278.915 57.312 279.875 55.328 279.875 52.896V38.304C279.875 35.8293 278.915 33.8453 276.995 32.352C275.075 30.816 272.515 30.048 269.315 30.048C266.158 30.048 263.619 30.816 261.699 32.352C259.779 33.8453 258.819 35.8293 258.819 38.304V52.896C258.819 55.328 259.779 57.312 261.699 58.848C263.619 60.3413 266.158 61.088 269.315 61.088Z" fill="white"/>
<path d="M13.9323 26.104C13.9323 24.9947 14.3376 24.0773 15.1483 23.352C15.9589 22.584 16.9829 22.2 18.2203 22.2H36.0123C39.0843 22.2 41.7936 22.8187 44.1403 24.056C46.5296 25.2507 48.3643 26.9787 49.6443 29.24C50.9669 31.4587 51.6283 34.04 51.6283 36.984C51.6283 39.9707 50.9883 42.5947 49.7083 44.856C48.4283 47.0747 46.6149 48.8027 44.2683 50.04C41.9216 51.2347 39.1696 51.832 36.0123 51.832H22.5083V61.24C22.5083 63.288 21.7616 64.8667 20.2683 65.976C18.8176 67.0427 16.7056 67.576 13.9323 67.576V26.104ZM36.0123 44.408C38.2736 44.408 40.0229 43.7467 41.2603 42.424C42.4976 41.1013 43.1163 39.2667 43.1163 36.92C43.1163 34.616 42.4763 32.824 41.1963 31.544C39.9589 30.264 38.2309 29.624 36.0123 29.624H22.5083V44.408H36.0123ZM57.8073 26.104C57.8073 24.9947 58.2126 24.0773 59.0233 23.352C59.8339 22.584 60.8579 22.2 62.0953 22.2H79.1833C83.7913 22.2 87.3539 23.416 89.8713 25.848C92.4313 28.28 93.7113 31.6933 93.7113 36.088C93.7113 38.6053 93.1993 40.7387 92.1753 42.488C91.1513 44.1947 89.5939 45.56 87.5033 46.584V46.776C91.2579 48.44 93.1353 51.5973 93.1353 56.248V61.24C93.1353 63.288 92.4099 64.8667 90.9593 65.976C89.5086 67.0427 87.3753 67.576 84.5593 67.576V56.632C84.5593 54.3707 84.1113 52.7067 83.2153 51.64C82.3193 50.5733 80.9539 50.04 79.1193 50.04H66.2553V61.24C66.2553 63.3307 65.5299 64.9093 64.0793 65.976C62.6713 67.0427 60.5806 67.576 57.8073 67.576V26.104ZM78.7353 42.744C80.7833 42.744 82.3619 42.168 83.4713 41.016C84.5806 39.8213 85.1353 38.1573 85.1353 36.024C85.1353 31.672 83.0019 29.496 78.7353 29.496H66.2553V42.744H78.7353Z" fill="white"/>
</svg>
