<svg width="84" height="68" viewBox="0 0 84 68" fill="none" xmlns="http://www.w3.org/2000/svg">
<path d="M70.8333 0.666656C77.4905 0.666656 82.9319 5.87051 83.3121 12.4322L83.3333 13.1667V20.738C83.3333 23.2645 81.8653 25.2307 80.1001 26.2776L79.6533 26.52C76.8879 27.8846 75 30.7258 75 34C75 37.0403 76.6278 39.7073 79.0745 41.1654L79.6533 41.48C81.4599 42.3711 83.0669 44.2116 83.3034 46.6423L83.3333 47.2621V54.8333C83.3333 61.4905 78.1297 66.9319 71.5678 67.3121L70.8333 67.3333H12.5C5.84301 67.3333 0.401414 62.1297 0.0212193 55.5678L0 54.8333V47.2621C0 44.7355 1.46805 42.7692 3.23313 41.7223L3.67992 41.48C6.44546 40.1154 8.33333 37.2742 8.33333 34C8.33333 30.9597 6.70552 28.2927 4.25873 26.8346L3.67992 26.52C1.87345 25.6288 0.266449 23.7884 0.0299066 21.3577L0 20.738V13.1667C0 6.50967 5.20385 1.06807 11.7655 0.687876L12.5 0.666656H70.8333ZM33.3333 21.5C31.0322 21.5 29.1667 23.3655 29.1667 25.6667V42.3333C29.1667 44.6346 31.0322 46.5 33.3333 46.5C35.6346 46.5 37.5 44.6346 37.5 42.3333V25.6667C37.5 23.3655 35.6346 21.5 33.3333 21.5Z" fill="url(#paint0_linear_1_298)"/>
<defs>
<linearGradient id="paint0_linear_1_298" x1="41.6666" y1="1" x2="41.6666" y2="67" gradientUnits="userSpaceOnUse">
<stop stop-color="#EFF575"/>
<stop offset="1" stop-color="#FF9843"/>
</linearGradient>
</defs>
</svg>
