<svg width="170" height="44" viewBox="0 0 170 44" fill="none" xmlns="http://www.w3.org/2000/svg">
<path d="M9.3484 15.1796H1.03153C1.03153 12.5108 2.23938 11.1764 4.65506 11.1764H22.2896C22.2896 13.8452 21.0702 15.1796 18.6315 15.1796H13.9727V32.2274C13.9727 33.3317 13.5816 34.183 12.7994 34.7812C12.0172 35.3563 10.8668 35.6439 9.3484 35.6439V15.1796ZM29.9777 21.4949C28.6203 21.4949 27.516 21.863 26.6648 22.5992C25.8135 23.3124 25.3879 24.2097 25.3879 25.291V33.0212C25.3879 33.9414 25.0428 34.6086 24.3526 35.0227C23.6624 35.4368 22.5811 35.6439 21.1087 35.6439V21.0808C21.1087 20.0225 21.4423 19.2057 22.1095 18.6306C22.7997 18.0554 23.835 17.7678 25.2154 17.7678V19.8039C24.8703 20.195 24.5942 20.5746 24.3871 20.9427L24.5942 21.0808C26.0436 18.8721 27.8611 17.7678 30.0467 17.7678C31.036 17.7678 31.7837 18.0324 32.2899 18.5615C32.796 19.0677 33.0491 19.7119 33.0491 20.4941C33.0491 21.0923 32.888 21.5984 32.5659 22.0125C31.9448 21.6674 31.082 21.4949 29.9777 21.4949ZM40.1829 35.6439C39.0096 35.6439 37.9283 35.4138 36.939 34.9537C35.9727 34.4936 35.1905 33.8379 34.5923 32.9866C34.0172 32.1124 33.7296 31.0771 33.7296 29.8808C33.7296 28.6844 34.0402 27.6491 34.6613 26.7749C35.2825 25.8776 36.1223 25.1989 37.1806 24.7388C38.2619 24.2557 39.4467 24.0141 40.7351 24.0141C41.7934 24.0141 42.7366 24.1866 43.5649 24.5317C44.4161 24.8538 45.1983 25.3485 45.9115 26.0157L46.0841 25.8431C45.877 25.6361 45.5204 25.3255 45.0143 24.9114V24.2212C45.0143 23.2779 44.6807 22.5302 44.0135 21.978C43.3463 21.4259 42.4145 21.1498 41.2182 21.1498C39.0786 21.1498 37.5026 21.932 36.4904 23.4964C35.9842 23.3354 35.5586 23.0823 35.2135 22.7372C34.8684 22.3691 34.6958 21.978 34.6958 21.5639C34.6958 20.8737 35.0064 20.241 35.6276 19.6659C36.2488 19.0907 37.0885 18.6306 38.1468 18.2855C39.2051 17.9404 40.3555 17.7678 41.5978 17.7678C44.0365 17.7678 45.923 18.343 47.2574 19.4933C48.5918 20.6206 49.259 22.1621 49.259 24.1176V32.7451C49.259 33.7574 48.9369 34.4936 48.2927 34.9537C47.6485 35.4138 46.6362 35.6439 45.2558 35.6439V34.229C45.647 33.8379 45.9115 33.5503 46.0496 33.3663L45.9115 33.1937C45.1523 33.9989 44.3356 34.6086 43.4613 35.0227C42.6101 35.4368 41.5173 35.6439 40.1829 35.6439ZM41.2872 32.5035C42.4836 32.5035 43.4153 32.2734 44.0825 31.8133C44.7497 31.3532 45.0833 30.6975 45.0833 29.8463C45.0833 29.018 44.7382 28.3623 44.048 27.8792C43.3808 27.3961 42.4721 27.1545 41.3217 27.1545C40.2634 27.1545 39.4237 27.3961 38.8025 27.8792C38.2043 28.3393 37.9053 28.995 37.9053 29.8463C37.9053 30.7205 38.2043 31.3877 38.8025 31.8478C39.4007 32.2849 40.2289 32.5035 41.2872 32.5035ZM59.4744 35.6439C58.2321 35.6439 57.1163 35.3793 56.127 34.8502C55.1377 34.321 54.3555 33.5963 53.7803 32.6761C53.2051 31.7328 52.9176 30.6515 52.9176 29.4321V23.9796C52.9176 22.7832 53.2166 21.7134 53.8148 20.7702C54.413 19.8269 55.2412 19.0907 56.2995 18.5615C57.3808 18.0324 58.5772 17.7678 59.8885 17.7678C60.7398 17.7678 61.614 17.9519 62.5113 18.32C63.4316 18.6651 64.2023 19.1367 64.8234 19.7349L64.9615 19.5623C64.8465 19.3783 64.5934 19.1482 64.2023 18.8721V13.7647C64.2023 12.8444 64.5589 12.1312 65.2721 11.6251C66.0083 11.1189 67.1126 10.8659 68.585 10.8659V32.6761C68.585 33.5273 68.2629 34.2405 67.6187 34.8157C66.9746 35.3678 65.9738 35.6439 64.6164 35.6439V33.7459C64.9155 33.3778 65.134 33.0787 65.2721 32.8486L65.0995 32.7106C64.3863 33.6768 63.5926 34.4131 62.7183 34.9192C61.8671 35.4023 60.7858 35.6439 59.4744 35.6439ZM60.7513 31.9168C61.7866 31.9168 62.6263 31.6753 63.2705 31.1921C63.9377 30.686 64.2713 30.0533 64.2713 29.2941V24.0831C64.2713 23.3469 63.9377 22.7372 63.2705 22.2541C62.6263 21.748 61.7751 21.4949 60.7168 21.4949C59.5895 21.4949 58.7152 21.7364 58.094 22.2196C57.4959 22.6797 57.1968 23.3469 57.1968 24.2212V29.1215C57.1968 30.0418 57.4959 30.7435 58.094 31.2266C58.7152 31.6868 59.601 31.9168 60.7513 31.9168ZM80.1606 35.6439C78.7342 35.6439 77.4344 35.3678 76.261 34.8157C75.0877 34.2405 74.1559 33.4698 73.4657 32.5035C72.7755 31.5142 72.4304 30.4099 72.4304 29.1906V24.6008C72.4304 23.3124 72.787 22.1506 73.5002 21.1153C74.2134 20.08 75.1567 19.2632 76.33 18.6651C77.5264 18.0669 78.8147 17.7678 80.1951 17.7678C81.5525 17.7678 82.7949 18.0554 83.9222 18.6306C85.0725 19.1827 85.9813 19.9649 86.6485 20.9772C87.3157 21.9665 87.6493 23.1053 87.6493 24.3937V26.3263C87.6493 26.8324 87.4537 27.258 87.0626 27.6031C86.6945 27.9482 86.2228 28.1208 85.6477 28.1208H76.6061V28.88C76.6061 29.8693 76.9052 30.6745 77.5034 31.2957C78.1015 31.9168 78.9988 32.2274 80.1951 32.2274C81.3455 32.2274 82.1967 31.9744 82.7489 31.4682C83.324 30.9621 83.6116 30.3064 83.6116 29.5012C84.0257 29.4551 84.3133 29.4321 84.4744 29.4321C85.3256 29.4321 85.9928 29.6277 86.4759 30.0188C86.9591 30.3869 87.2006 30.9161 87.2006 31.6063C87.2006 32.2734 86.89 32.9176 86.2689 33.5388C85.6477 34.16 84.7964 34.6661 83.7151 35.0572C82.6338 35.4483 81.449 35.6439 80.1606 35.6439ZM83.7496 25.0494V24.3937C83.7496 23.4274 83.4161 22.6452 82.7489 22.047C82.0817 21.4489 81.2189 21.1498 80.1606 21.1498C79.1023 21.1498 78.2396 21.4489 77.5724 22.047C76.9282 22.6222 76.6061 23.4044 76.6061 24.3937V25.0494H83.7496Z" fill="#38414A"/>
<path d="M97.2001 11.7333C97.2001 5.25319 102.453 0 108.933 0H169.067V32.2667C169.067 38.7468 163.814 44 157.333 44H108.933C102.453 44 97.2001 38.7468 97.2001 32.2667V11.7333Z" fill="#FF9843"/>
<path d="M106.849 15.3874C106.849 14.3935 107.201 13.6378 107.905 13.1201C108.609 12.5818 109.644 12.3126 111.011 12.3126V21.5681H120.298V15.3874C120.298 14.3728 120.65 13.6067 121.354 13.0891C122.078 12.5714 123.114 12.3126 124.459 12.3126V31.538C124.459 32.5319 124.097 33.298 123.372 33.8364C122.668 34.354 121.643 34.6128 120.298 34.6128V25.171H111.011V31.538C111.011 32.5319 110.649 33.298 109.924 33.8364C109.22 34.354 108.195 34.6128 106.849 34.6128V15.3874ZM141.87 31.6001C141.87 32.5733 141.559 33.3187 140.938 33.8364C140.338 34.354 139.416 34.6128 138.174 34.6128V32.7493C138.443 32.4387 138.692 32.0971 138.919 31.7244L138.733 31.6001C137.408 33.6086 135.627 34.6128 133.391 34.6128C132.335 34.6128 131.383 34.3747 130.534 33.8985C129.705 33.4015 129.043 32.7183 128.546 31.8486C128.07 30.979 127.831 29.9954 127.831 28.898V20.8848C127.831 20.0359 128.142 19.4354 128.763 19.0834C129.405 18.7107 130.378 18.5244 131.683 18.5244V28.6185C131.683 29.426 131.931 30.0679 132.428 30.5441C132.925 31.0204 133.639 31.2585 134.571 31.2585C135.607 31.2585 136.435 30.9375 137.056 30.2957C137.698 29.6331 138.019 28.8152 138.019 27.842V20.8848C138.019 20.0359 138.329 19.4354 138.951 19.0834C139.572 18.7107 140.545 18.5244 141.87 18.5244V31.6001ZM145.521 14.9215C145.521 14.0933 145.842 13.4514 146.484 12.9959C147.146 12.5404 148.13 12.3126 149.434 12.3126V19.5183C149.144 19.746 148.917 19.9531 148.751 20.1394L148.875 20.2947C149.434 19.7564 150.159 19.3319 151.049 19.0213C151.96 18.69 152.799 18.5244 153.565 18.5244C155.408 18.5244 156.878 19.042 157.976 20.0773C159.073 21.0919 159.622 22.4274 159.622 24.0839V29.0223C159.622 30.099 159.352 31.0618 158.814 31.9107C158.276 32.7597 157.551 33.4223 156.64 33.8985C155.729 34.3747 154.756 34.6128 153.72 34.6128C152.623 34.6128 151.66 34.3954 150.832 33.9606C150.024 33.5051 149.289 32.8425 148.627 31.9728L148.503 32.0971C148.585 32.242 148.689 32.387 148.813 32.5319C148.937 32.6768 149.031 32.7907 149.093 32.8735C149.093 33.4533 148.813 33.8881 148.254 34.178C147.695 34.4679 146.784 34.6128 145.521 34.6128V14.9215ZM152.571 31.2585C153.607 31.2585 154.393 31.0514 154.932 30.6373C155.491 30.2025 155.77 29.571 155.77 28.7427V24.3324C155.77 23.5455 155.491 22.9451 154.932 22.531C154.373 22.0961 153.586 21.8787 152.571 21.8787C151.66 21.8787 150.894 22.1065 150.273 22.562C149.672 23.0175 149.372 23.5663 149.372 24.2081V28.898C149.372 29.5813 149.672 30.1507 150.273 30.6063C150.873 31.0411 151.64 31.2585 152.571 31.2585Z" fill="#38414A"/>
</svg>
