<svg width="300" height="84" fill="none" xmlns="http://www.w3.org/2000/svg"><path d="M0 0h300v59c0 13.807-11.193 25-25 25H25C11.193 84 0 72.807 0 59V0z" fill="#1C1F24"/><path d="M199.964 29.024c0-1.963.768-3.52 2.304-4.672 1.536-1.195 3.626-1.792 6.272-1.792l13.44 33.792-1.472 4.032.64.256 14.4-38.016c2.602 0 4.672.597 6.208 1.792 1.578 1.152 2.368 2.71 2.368 4.672v39.488c-5.59 0-8.384-2.09-8.384-6.272v-20.48l2.176-5.888-.704-.256L225.5 66.272a3.8 3.8 0 01-1.408 1.664c-.598.427-1.28.64-2.048.64a3.728 3.728 0 01-2.112-.64c-.598-.427-1.046-1.003-1.344-1.728l-11.712-30.592-.704.256 2.112 5.888v20.544c0 4.181-2.774 6.272-8.32 6.272V29.024zm69.351 39.552c-3.499 0-6.699-.683-9.6-2.048-2.901-1.408-5.205-3.307-6.912-5.696-1.664-2.39-2.496-4.992-2.496-7.808V38.112c0-2.816.832-5.397 2.496-7.744 1.707-2.39 4.011-4.267 6.912-5.632 2.901-1.408 6.101-2.112 9.6-2.112 3.499 0 6.699.704 9.6 2.112 2.944 1.365 5.248 3.243 6.912 5.632 1.707 2.347 2.56 4.928 2.56 7.744v14.912c0 2.816-.853 5.419-2.56 7.808-1.664 2.39-3.968 4.288-6.912 5.696-2.901 1.365-6.101 2.048-9.6 2.048zm0-7.488c3.2 0 5.76-.747 7.68-2.24 1.92-1.536 2.88-3.52 2.88-5.952V38.304c0-2.475-.96-4.459-2.88-5.952-1.92-1.536-4.48-2.304-7.68-2.304-3.157 0-5.696.768-7.616 2.304-1.92 1.493-2.88 3.477-2.88 5.952v14.592c0 2.432.96 4.416 2.88 5.952 1.92 1.493 4.459 2.24 7.616 2.24zM13.932 26.104c0-1.11.406-2.027 1.216-2.752.81-.768 1.835-1.152 3.072-1.152h17.792c3.072 0 5.782.619 8.128 1.856 2.39 1.195 4.224 2.923 5.504 5.184 1.323 2.219 1.984 4.8 1.984 7.744 0 2.987-.64 5.61-1.92 7.872-1.28 2.219-3.093 3.947-5.44 5.184-2.346 1.195-5.098 1.792-8.256 1.792H22.508v9.408c0 2.048-.746 3.627-2.24 4.736-1.45 1.067-3.562 1.6-6.336 1.6V26.104zm22.08 18.304c2.262 0 4.01-.661 5.248-1.984 1.238-1.323 1.856-3.157 1.856-5.504 0-2.304-.64-4.096-1.92-5.376-1.237-1.28-2.965-1.92-5.184-1.92H22.508v14.784h13.504zm21.795-18.304c0-1.11.406-2.027 1.216-2.752.81-.768 1.835-1.152 3.072-1.152h17.088c4.608 0 8.17 1.216 10.688 3.648 2.56 2.432 3.84 5.845 3.84 10.24 0 2.517-.512 4.65-1.536 6.4-1.024 1.707-2.581 3.072-4.672 4.096v.192c3.755 1.664 5.632 4.821 5.632 9.472v4.992c0 2.048-.725 3.627-2.176 4.736-1.45 1.067-3.584 1.6-6.4 1.6V56.632c0-2.261-.448-3.925-1.344-4.992-.896-1.067-2.261-1.6-4.096-1.6H66.255v11.2c0 2.09-.725 3.67-2.176 4.736-1.408 1.067-3.498 1.6-6.272 1.6V26.104zm20.928 16.64c2.048 0 3.627-.576 4.736-1.728 1.11-1.195 1.664-2.859 1.664-4.992 0-4.352-2.133-6.528-6.4-6.528h-12.48v13.248h12.48z" fill="#fff"/></svg>