<svg width="84" height="68" fill="none" xmlns="http://www.w3.org/2000/svg"><path d="M70.833.667c6.657 0 12.099 5.204 12.48 11.765l.02.735v7.571c0 2.527-1.468 4.493-3.233 5.54l-.447.242A8.334 8.334 0 0075 34a8.33 8.33 0 004.075 7.165l.578.315c1.807.891 3.414 2.732 3.65 5.162l.03.62v7.571c0 6.657-5.203 12.099-11.765 12.48l-.735.02H12.5C5.843 67.333.401 62.13.021 55.568L0 54.833v-7.57c0-2.527 1.468-4.494 3.233-5.54l.447-.243A8.334 8.334 0 008.333 34a8.33 8.33 0 00-4.074-7.165l-.58-.315C1.874 25.629.267 23.788.03 21.358l-.03-.62v-7.571C0 6.51 5.204 1.068 11.765.687l.735-.02h58.333zM33.333 21.5a4.167 4.167 0 00-4.166 4.167v16.666a4.167 4.167 0 108.333 0V25.667a4.167 4.167 0 00-4.167-4.167z" fill="url(#paint0_linear_1_298)"/><defs><linearGradient id="paint0_linear_1_298" x1="41.667" y1="1" x2="41.667" y2="67" gradientUnits="userSpaceOnUse"><stop stop-color="#EFF575"/><stop offset="1" stop-color="#FF9843"/></linearGradient></defs></svg>