<svg width="170" height="44" fill="none" xmlns="http://www.w3.org/2000/svg"><path d="M9.348 15.18H1.032c0-2.67 1.207-4.004 3.623-4.004H22.29c0 2.67-1.22 4.004-3.659 4.004h-4.658v17.047c0 1.105-.391 1.956-1.174 2.554-.782.575-1.932.863-3.45.863V15.18zm20.63 6.315c-1.358 0-2.462.368-3.313 1.104-.851.713-1.277 1.61-1.277 2.692v7.73c0 .92-.345 1.588-1.035 2.002-.69.414-1.772.62-3.244.62V21.082c0-1.058.333-1.875 1-2.45.69-.576 1.726-.863 3.106-.863v2.036a6.74 6.74 0 00-.828 1.139l.207.138c1.45-2.209 3.267-3.313 5.453-3.313.989 0 1.737.264 2.243.793.506.507.76 1.15.76 1.933 0 .598-.162 1.104-.484 1.518-.621-.345-1.484-.517-2.588-.517zm10.205 14.149c-1.173 0-2.255-.23-3.244-.69a5.928 5.928 0 01-2.347-1.967c-.575-.875-.862-1.91-.862-3.106 0-1.197.31-2.232.931-3.106.621-.897 1.461-1.576 2.52-2.036 1.08-.483 2.266-.725 3.554-.725 1.058 0 2.002.173 2.83.518a7.098 7.098 0 012.346 1.484l.173-.173a16.088 16.088 0 00-1.07-.932v-.69c0-.943-.333-1.69-1-2.243-.668-.552-1.6-.828-2.796-.828-2.14 0-3.715.782-4.728 2.346a3.101 3.101 0 01-1.276-.759c-.346-.368-.518-.759-.518-1.173 0-.69.31-1.323.932-1.898.62-.575 1.46-1.035 2.519-1.38 1.058-.346 2.209-.518 3.45-.518 2.44 0 4.326.575 5.66 1.725 1.335 1.128 2.002 2.67 2.002 4.625v8.627c0 1.012-.322 1.749-.966 2.209-.645.46-1.657.69-3.037.69v-1.415c.391-.391.655-.679.794-.863l-.139-.172c-.759.805-1.575 1.415-2.45 1.829-.85.414-1.944.62-3.278.62zm1.104-3.14c1.197 0 2.128-.23 2.796-.69.667-.46 1-1.116 1-1.968 0-.828-.345-1.484-1.035-1.967-.667-.483-1.576-.725-2.726-.725-1.059 0-1.898.242-2.52.725-.598.46-.897 1.116-.897 1.967 0 .875.3 1.542.898 2.002.598.437 1.426.656 2.484.656zm18.187 3.14c-1.242 0-2.358-.265-3.347-.794a6.11 6.11 0 01-2.347-2.174c-.575-.943-.862-2.025-.862-3.244V23.98c0-1.197.299-2.267.897-3.21.598-.943 1.426-1.68 2.485-2.209 1.08-.529 2.277-.793 3.589-.793.85 0 1.725.184 2.622.552.92.345 1.691.817 2.312 1.415l.139-.173c-.115-.184-.369-.414-.76-.69v-5.107c0-.92.357-1.634 1.07-2.14.736-.506 1.84-.76 3.313-.76v21.811c0 .851-.322 1.564-.966 2.14-.644.552-1.645.828-3.003.828v-1.898c.3-.368.518-.667.656-.897l-.172-.138c-.714.966-1.507 1.702-2.382 2.208-.85.483-1.932.725-3.244.725zm1.277-3.727c1.036 0 1.875-.242 2.52-.725.667-.506 1-1.139 1-1.898v-5.21c0-.737-.333-1.347-1-1.83-.645-.506-1.496-.76-2.554-.76-1.127 0-2.002.242-2.623.726-.598.46-.897 1.127-.897 2.001v4.9c0 .92.299 1.623.897 2.106.621.46 1.507.69 2.657.69zm19.41 3.727c-1.427 0-2.727-.276-3.9-.828-1.173-.576-2.105-1.346-2.795-2.313a5.657 5.657 0 01-1.036-3.312V24.6c0-1.289.357-2.45 1.07-3.486.713-1.035 1.657-1.852 2.83-2.45a8.523 8.523 0 013.865-.897c1.358 0 2.6.287 3.727.863 1.15.552 2.06 1.334 2.727 2.346.667.99 1 2.128 1 3.417v1.932c0 .506-.195.932-.586 1.277-.368.345-.84.518-1.415.518h-9.042v.759c0 .99.3 1.794.897 2.416.599.62 1.496.931 2.692.931 1.15 0 2.002-.253 2.554-.759.575-.506.863-1.162.863-1.967.414-.046.701-.069.862-.069.852 0 1.519.196 2.002.587.483.368.725.897.725 1.587 0 .667-.311 1.312-.932 1.933s-1.473 1.127-2.554 1.518c-1.081.391-2.266.587-3.554.587zm3.589-10.595v-.655c0-.967-.334-1.749-1.001-2.347-.667-.598-1.53-.897-2.588-.897-1.059 0-1.921.299-2.589.897-.644.575-.966 1.357-.966 2.347v.655h7.144z" fill="#38414A"/><path d="M97.2 11.733C97.2 5.253 102.453 0 108.933 0h60.134v32.267c0 6.48-5.253 11.733-11.734 11.733h-48.4c-6.48 0-11.733-5.253-11.733-11.733V11.733z" fill="#FF9843"/><path d="M106.849 15.387c0-.994.352-1.75 1.056-2.267.704-.538 1.739-.807 3.106-.807v9.255h9.287v-6.18c0-1.015.352-1.781 1.056-2.299.724-.518 1.76-.776 3.105-.776v19.225c0 .994-.362 1.76-1.087 2.298-.704.518-1.729.777-3.074.777V25.17h-9.287v6.367c0 .994-.362 1.76-1.087 2.298-.704.518-1.729.777-3.075.777V15.387zM141.87 31.6c0 .973-.311 1.719-.932 2.236-.6.518-1.522.777-2.764.777v-1.864c.269-.31.518-.652.745-1.025l-.186-.124c-1.325 2.009-3.106 3.013-5.342 3.013-1.056 0-2.008-.238-2.857-.715a5.553 5.553 0 01-1.988-2.05c-.476-.869-.715-1.853-.715-2.95v-8.013c0-.85.311-1.45.932-1.802.642-.372 1.615-.559 2.92-.559V28.62c0 .807.248 1.449.745 1.925s1.211.715 2.143.715c1.036 0 1.864-.322 2.485-.963.642-.663.963-1.48.963-2.454v-6.957c0-.85.31-1.45.932-1.802.621-.372 1.594-.559 2.919-.559V31.6zm3.651-16.679c0-.828.321-1.47.963-1.925.662-.456 1.646-.683 2.95-.683v7.205a5.34 5.34 0 00-.683.621l.124.156c.559-.539 1.284-.963 2.174-1.274.911-.331 1.75-.497 2.516-.497 1.843 0 3.313.518 4.411 1.553 1.097 1.015 1.646 2.35 1.646 4.007v4.938c0 1.077-.27 2.04-.808 2.889a5.59 5.59 0 01-2.174 1.987 6.211 6.211 0 01-2.92.715c-1.097 0-2.06-.218-2.888-.652-.808-.456-1.543-1.118-2.205-1.988l-.124.124c.082.145.186.29.31.435.124.145.218.259.28.342 0 .58-.28 1.014-.839 1.304-.559.29-1.47.435-2.733.435V14.922zm7.05 16.338c1.036 0 1.822-.208 2.361-.622.559-.434.838-1.066.838-1.894v-4.41c0-.787-.279-1.388-.838-1.802-.559-.435-1.346-.652-2.361-.652-.911 0-1.677.227-2.298.683-.601.455-.901 1.004-.901 1.646v4.69c0 .683.3 1.253.901 1.708.6.435 1.367.652 2.298.652z" fill="#38414A"/></svg>